<svg xmlns="http://www.w3.org/2000/svg" viewBox="0 0 120 120" role="img" aria-label="Ying Wang Pilot 头像">
  <defs>
    <clipPath id="cp"><circle cx="60" cy="60" r="58"/></clipPath>
  </defs>
  <circle cx="60" cy="60" r="58" fill="#e8eef2"/>
  <g clip-path="url(#cp)">
    <rect x="0" y="0" width="120" height="120" fill="#e8eef2"/>
    <circle cx="60" cy="52" r="26" fill="#f2c9a0"/>
    <ellipse cx="60" cy="30" rx="27" ry="16" fill="#f2c9a0"/>
    <ellipse cx="41" cy="50" rx="3.2" ry="3.6" fill="#3a3a3a"/>
    <ellipse cx="79" cy="50" rx="3.2" ry="3.6" fill="#3a3a3a"/>
    <path d="M48 66 Q60 74 72 66" stroke="#8a5a3b" stroke-width="2.6" fill="none" stroke-linecap="round"/>
    <path d="M46 42 Q60 36 74 42" stroke="#d9a06b" stroke-width="2" fill="none" stroke-linecap="round"/>
    <path d="M60 26 m-8 0 a8 8 0 0 1 16 0" stroke="#d9a06b" stroke-width="2" fill="none" stroke-linecap="round"/>
    <path d="M24 120 C26 92 42 82 60 82 C78 82 94 92 96 120 Z" fill="#2f6f6a"/>
    <path d="M52 82 h16 v10 h-16 Z" fill="#f2c9a0"/>
    <path d="M56 92 L60 100 L64 92" fill="#ffffff" opacity="0.9"/>
  </g>
  <circle cx="60" cy="60" r="57" fill="none" stroke="#c3d2da" stroke-width="2"/>
</svg>
